<svg xmlns="http://www.w3.org/2000/svg" aria-hidden="true" style="position:absolute;width:0;height:0;overflow:hidden">
  <defs>
    <symbol id="logo" viewBox="0 0 41 32">
      <path fill="#fff" d="M10.328 7.834c3.237 0 5.709.794 7.415 2.383 1.736 1.589 2.604 3.958 2.604 7.106v14.124H16.33v-3.09c-.706 1.089-1.721 1.927-3.046 2.516-1.295.559-2.84.839-4.634.839-2.619 0-4.723-.633-6.312-1.898-1.56-1.265-2.339-2.928-2.339-4.988s.75-3.708 2.251-4.943c1.501-1.265 3.884-1.898 7.15-1.898h6.709v-.839c0-1.824-.53-3.222-1.589-4.193s-2.619-1.457-4.679-1.457c-1.383 0-2.737.235-4.061.706-1.324.441-2.442 1.045-3.354 1.81L.66 10.834c1.206-.971 2.648-1.707 4.326-2.207 1.677-.53 3.457-.794 5.341-.794zm-.971 20.613c1.618 0 3.016-.353 4.193-1.059 1.177-.736 2.03-1.766 2.56-3.09v-3.266H9.578c-3.59 0-5.385 1.206-5.385 3.619 0 1.177.456 2.104 1.368 2.781s2.178 1.015 3.796 1.015z" style="fill:var(--color1, #fff)"/>
      <path fill="#fff" d="M40.607 19.884c0 .324-.029.75-.088 1.28H21.54c.265 2.06 1.162 3.722 2.692 4.988 1.559 1.236 3.487 1.854 5.782 1.854 2.795 0 5.046-.942 6.753-2.825l2.339 2.737c-1.059 1.236-2.383 2.177-3.972 2.825-1.56.647-3.31.971-5.252.971-2.472 0-4.664-.5-6.577-1.501-1.913-1.03-3.399-2.457-4.458-4.281-1.03-1.824-1.545-3.884-1.545-6.179 0-2.266.5-4.311 1.501-6.135 1.03-1.824 2.428-3.237 4.193-4.237 1.795-1.03 3.811-1.545 6.047-1.545s4.222.515 5.959 1.545c1.766 1 3.134 2.413 4.105 4.237 1 1.824 1.501 3.914 1.501 6.268zM29.043 11.41c-2.03 0-3.737.618-5.12 1.854-1.354 1.236-2.148 2.854-2.383 4.855h15.007c-.235-1.972-1.045-3.575-2.428-4.811-1.354-1.265-3.046-1.898-5.076-1.898zM37.517 3.31H22.069V0h15.448v3.31z" style="fill:var(--color1, #fff)"/>
    </symbol>
  </defs>
</svg>
